<mxfile host="app.diagrams.net" agent="Mozilla/5.0 (Windows NT 10.0; Win64; x64) AppleWebKit/537.36 (KHTML, like Gecko) Chrome/138.0.0.0 Safari/537.36" version="28.0.7">
  <diagram name="Page-1" id="NmzJOgyUyYM8Y3-fx3c8">
    <mxGraphModel dx="786" dy="451" grid="1" gridSize="10" guides="1" tooltips="1" connect="1" arrows="1" fold="1" page="1" pageScale="1" pageWidth="850" pageHeight="1100" math="0" shadow="0">
      <root>
        <mxCell id="0" />
        <mxCell id="1" parent="0" />
        <mxCell id="fogxANIP0zKiAKyrX4SN-1" value="plan" style="ellipse;whiteSpace=wrap;html=1;" vertex="1" parent="1">
          <mxGeometry x="220" y="30" width="120" height="80" as="geometry" />
        </mxCell>
        <mxCell id="fogxANIP0zKiAKyrX4SN-3" value="" style="ellipse;whiteSpace=wrap;html=1;" vertex="1" parent="1">
          <mxGeometry x="240" y="340" width="120" height="80" as="geometry" />
        </mxCell>
        <mxCell id="fogxANIP0zKiAKyrX4SN-5" value="" style="endArrow=classic;html=1;rounded=0;" edge="1" parent="1" source="fogxANIP0zKiAKyrX4SN-2">
          <mxGeometry width="50" height="50" relative="1" as="geometry">
            <mxPoint x="285" y="110" as="sourcePoint" />
            <mxPoint x="315" y="190" as="targetPoint" />
          </mxGeometry>
        </mxCell>
        <mxCell id="fogxANIP0zKiAKyrX4SN-6" value="" style="endArrow=classic;html=1;rounded=0;entryX=0.422;entryY=0.025;entryDx=0;entryDy=0;entryPerimeter=0;" edge="1" parent="1" target="fogxANIP0zKiAKyrX4SN-3">
          <mxGeometry width="50" height="50" relative="1" as="geometry">
            <mxPoint x="290" y="260" as="sourcePoint" />
            <mxPoint x="340" y="270" as="targetPoint" />
            <Array as="points">
              <mxPoint x="291" y="310" />
            </Array>
          </mxGeometry>
        </mxCell>
        <mxCell id="fogxANIP0zKiAKyrX4SN-7" value="" style="endArrow=classic;html=1;rounded=0;" edge="1" parent="1" target="fogxANIP0zKiAKyrX4SN-2">
          <mxGeometry width="50" height="50" relative="1" as="geometry">
            <mxPoint x="285" y="110" as="sourcePoint" />
            <mxPoint x="315" y="190" as="targetPoint" />
            <Array as="points" />
          </mxGeometry>
        </mxCell>
        <mxCell id="fogxANIP0zKiAKyrX4SN-2" value="develop" style="ellipse;whiteSpace=wrap;html=1;" vertex="1" parent="1">
          <mxGeometry x="230" y="180" width="120" height="80" as="geometry" />
        </mxCell>
      </root>
    </mxGraphModel>
  </diagram>
</mxfile>
